<mxfile host="app.diagrams.net" modified="2021-09-07T13:11:19.642Z" agent="5.0 (X11; Linux x86_64) AppleWebKit/537.36 (KHTML, like Gecko) Chrome/94.0.4606.31 Safari/537.36" etag="ET7bzrMyOlH0SRLLAY5A" version="15.1.0" type="github">
  <diagram id="UplocadVMHHQOm7ADhWX" name="Page-1">
    <mxGraphModel dx="1422" dy="757" grid="1" gridSize="10" guides="1" tooltips="1" connect="1" arrows="1" fold="1" page="1" pageScale="1" pageWidth="690" pageHeight="980" math="0" shadow="0">
      <root>
        <mxCell id="0" />
        <mxCell id="1" parent="0" />
        <mxCell id="LvEMI-JfPn-iT1kgMiFy-1" value="" style="ellipse;html=1;shape=startState;fillColor=#000000;strokeColor=#ff0000;" vertex="1" parent="1">
          <mxGeometry x="330" y="20" width="30" height="30" as="geometry" />
        </mxCell>
        <mxCell id="LvEMI-JfPn-iT1kgMiFy-2" value="" style="edgeStyle=orthogonalEdgeStyle;html=1;verticalAlign=bottom;endArrow=open;endSize=8;strokeColor=#ff0000;" edge="1" source="LvEMI-JfPn-iT1kgMiFy-1" parent="1">
          <mxGeometry relative="1" as="geometry">
            <mxPoint x="345" y="110" as="targetPoint" />
          </mxGeometry>
        </mxCell>
        <mxCell id="LvEMI-JfPn-iT1kgMiFy-3" value="" style="ellipse;html=1;shape=endState;fillColor=#000000;strokeColor=#ff0000;" vertex="1" parent="1">
          <mxGeometry x="330" y="700" width="30" height="30" as="geometry" />
        </mxCell>
        <mxCell id="LvEMI-JfPn-iT1kgMiFy-16" style="edgeStyle=orthogonalEdgeStyle;rounded=0;orthogonalLoop=1;jettySize=auto;html=1;exitX=0.5;exitY=1;exitDx=0;exitDy=0;entryX=0.5;entryY=0;entryDx=0;entryDy=0;" edge="1" parent="1" source="LvEMI-JfPn-iT1kgMiFy-4" target="LvEMI-JfPn-iT1kgMiFy-5">
          <mxGeometry relative="1" as="geometry" />
        </mxCell>
        <mxCell id="LvEMI-JfPn-iT1kgMiFy-4" value="Input: a" style="html=1;" vertex="1" parent="1">
          <mxGeometry x="290" y="110" width="110" height="50" as="geometry" />
        </mxCell>
        <mxCell id="LvEMI-JfPn-iT1kgMiFy-15" style="edgeStyle=orthogonalEdgeStyle;rounded=0;orthogonalLoop=1;jettySize=auto;html=1;exitX=0.5;exitY=1;exitDx=0;exitDy=0;entryX=0.5;entryY=0;entryDx=0;entryDy=0;" edge="1" parent="1" source="LvEMI-JfPn-iT1kgMiFy-5" target="LvEMI-JfPn-iT1kgMiFy-6">
          <mxGeometry relative="1" as="geometry" />
        </mxCell>
        <mxCell id="LvEMI-JfPn-iT1kgMiFy-5" value="b = a / 2" style="html=1;" vertex="1" parent="1">
          <mxGeometry x="290" y="230" width="110" height="50" as="geometry" />
        </mxCell>
        <mxCell id="LvEMI-JfPn-iT1kgMiFy-6" value="b = 0" style="rhombus;whiteSpace=wrap;html=1;fillColor=#ffffc0;strokeColor=#ff0000;" vertex="1" parent="1">
          <mxGeometry x="308" y="360" width="80" height="40" as="geometry" />
        </mxCell>
        <mxCell id="LvEMI-JfPn-iT1kgMiFy-7" value="no" style="edgeStyle=orthogonalEdgeStyle;html=1;align=left;verticalAlign=bottom;endArrow=open;endSize=8;strokeColor=#ff0000;entryX=0.5;entryY=0;entryDx=0;entryDy=0;" edge="1" source="LvEMI-JfPn-iT1kgMiFy-6" parent="1" target="LvEMI-JfPn-iT1kgMiFy-14">
          <mxGeometry x="-1" relative="1" as="geometry">
            <mxPoint x="488" y="380" as="targetPoint" />
          </mxGeometry>
        </mxCell>
        <mxCell id="LvEMI-JfPn-iT1kgMiFy-8" value="yes" style="edgeStyle=orthogonalEdgeStyle;html=1;align=left;verticalAlign=top;endArrow=open;endSize=8;strokeColor=#ff0000;entryX=0.5;entryY=0;entryDx=0;entryDy=0;" edge="1" source="LvEMI-JfPn-iT1kgMiFy-6" parent="1" target="LvEMI-JfPn-iT1kgMiFy-13">
          <mxGeometry x="-1" relative="1" as="geometry">
            <mxPoint x="203" y="380" as="targetPoint" />
          </mxGeometry>
        </mxCell>
        <mxCell id="LvEMI-JfPn-iT1kgMiFy-22" style="edgeStyle=orthogonalEdgeStyle;rounded=0;orthogonalLoop=1;jettySize=auto;html=1;exitX=0.5;exitY=1;exitDx=0;exitDy=0;entryX=0.5;entryY=0;entryDx=0;entryDy=0;" edge="1" parent="1" source="LvEMI-JfPn-iT1kgMiFy-13" target="LvEMI-JfPn-iT1kgMiFy-3">
          <mxGeometry relative="1" as="geometry" />
        </mxCell>
        <mxCell id="LvEMI-JfPn-iT1kgMiFy-13" value="Zero" style="html=1;" vertex="1" parent="1">
          <mxGeometry x="150" y="490" width="110" height="50" as="geometry" />
        </mxCell>
        <mxCell id="LvEMI-JfPn-iT1kgMiFy-21" style="edgeStyle=orthogonalEdgeStyle;rounded=0;orthogonalLoop=1;jettySize=auto;html=1;exitX=0.5;exitY=1;exitDx=0;exitDy=0;entryX=0.5;entryY=0;entryDx=0;entryDy=0;" edge="1" parent="1" source="LvEMI-JfPn-iT1kgMiFy-14" target="LvEMI-JfPn-iT1kgMiFy-3">
          <mxGeometry relative="1" as="geometry" />
        </mxCell>
        <mxCell id="LvEMI-JfPn-iT1kgMiFy-14" value="Garbage" style="html=1;" vertex="1" parent="1">
          <mxGeometry x="430" y="490" width="110" height="50" as="geometry" />
        </mxCell>
      </root>
    </mxGraphModel>
  </diagram>
</mxfile>
